HIERARCHY
ROOT Hips
{
	OFFSET 0.000000 0.000000 0.000000
	CHANNELS 6 Xposition Yposition Zposition Yrotation Zrotation Xrotation
	JOINT LeftUpLeg
	{
		OFFSET 9.633789 -3.273254 0.000000
		CHANNELS 3 Yrotation Zrotation Xrotation
		JOINT LeftLeg
		{
			OFFSET 0.000000 -41.730000 -1.729965
			CHANNELS 3 Yrotation Zrotation Xrotation
			JOINT LeftFoot
			{
				OFFSET 0.012605 -39.189999 -0.847687
				CHANNELS 3 Yrotation Zrotation Xrotation
				JOINT LeftToeBase
				{
					OFFSET -0.183287 -12.193086 8.282264
					CHANNELS 3 Yrotation Zrotation Xrotation
					End Site
					{
						OFFSET 0.000000 0.000000 10.000000
					}
				}
			}
		}
	}
	JOINT RightUpLeg
	{
		OFFSET -9.633789 -3.273254 0.000000
		CHANNELS 3 Yrotation Zrotation Xrotation
		JOINT RightLeg
		{
			OFFSET 0.000000 -41.730000 -1.729965
			CHANNELS 3 Yrotation Zrotation Xrotation
			JOINT RightFoot
			{
				OFFSET 0.012605 -39.189999 -0.847687
				CHANNELS 3 Yrotation Zrotation Xrotation
				JOINT RightToeBase
				{
					OFFSET -0.183287 -12.193086 8.282264
					CHANNELS 3 Yrotation Zrotation Xrotation
					End Site
					{
						OFFSET 0.000000 0.000000 10.000000
					}
				}
			}
		}
	}
	JOINT Spine
	{
		OFFSET 0.000000 9.226319 1.577133
		CHANNELS 3 Yrotation Zrotation Xrotation
		JOINT Spine1
		{
			OFFSET 0.000000 16.254028 -0.165605
			CHANNELS 3 Yrotation Zrotation Xrotation
			JOINT Spine2
			{
				OFFSET 0.000000 13.639648 -1.292305
				CHANNELS 3 Yrotation Zrotation Xrotation
				JOINT LeftShoulder
				{
					OFFSET 6.144226 10.187012 -3.793244
					CHANNELS 3 Yrotation Zrotation Xrotation
					JOINT LeftArm
					{
						OFFSET 12.319092 -1.112976 -1.793457
						CHANNELS 3 Yrotation Zrotation Xrotation
						JOINT LeftForeArm
						{
							OFFSET 27.687012 0.000000 0.000000
							CHANNELS 3 Yrotation Zrotation Xrotation
							JOINT LeftHand
							{
								OFFSET 27.873779 0.000000 0.000000
								CHANNELS 3 Yrotation Zrotation Xrotation
								JOINT LeftHandIndex1
								{
									OFFSET 10.394535 0.614761 2.705492
									CHANNELS 3 Yrotation Zrotation Xrotation
									JOINT LeftHandIndex2
									{
										OFFSET 5.549290 0.000000 0.000000
										CHANNELS 3 Yrotation Zrotation Xrotation
										JOINT LeftHandIndex3
										{
											OFFSET 3.391119 0.000000 0.000000
											CHANNELS 3 Yrotation Zrotation Xrotation
											End Site
											{
												OFFSET 2.000000 0.000000 0.000000
											}
										}
									}
								}
								JOINT LeftHandThumb1
								{
									OFFSET 2.378513 -1.002899 2.620936
									CHANNELS 3 Yrotation Zrotation Xrotation
									JOINT LeftHandThumb2
									{
										OFFSET 3.362369 -1.002900 2.839772
										CHANNELS 3 Yrotation Zrotation Xrotation
										JOINT LeftHandThumb3
										{
											OFFSET 4.501795 -1.344499 2.178268
											CHANNELS 3 Yrotation Zrotation Xrotation
											End Site
											{
												OFFSET 2.000000 0.000000 0.000000
											}
										}
									}
								}
								JOINT LeftHandMiddle1
								{
									OFFSET 10.463907 0.614760 0.429787
									CHANNELS 3 Yrotation Zrotation Xrotation
									JOINT LeftHandMiddle2
									{
										OFFSET 5.792091 0.000000 0.000000
										CHANNELS 3 Yrotation Zrotation Xrotation
										JOINT LeftHandMiddle3
										{
											OFFSET 3.713173 0.000000 0.000000
											CHANNELS 3 Yrotation Zrotation Xrotation
											End Site
											{
												OFFSET 2.000000 0.000000 0.000000
											}
										}
									}
								}
								JOINT LeftHandPinky1
								{
									OFFSET 10.012992 -0.078348 -3.967141
									CHANNELS 3 Yrotation Zrotation Xrotation
									JOINT LeftHandPinky2
									{
										OFFSET 3.676256 0.000000 0.000000
										CHANNELS 3 Yrotation Zrotation Xrotation
										JOINT LeftHandPinky3
										{
											OFFSET 2.811343 0.000000 0.000000
											CHANNELS 3 Yrotation Zrotation Xrotation
											End Site
											{
												OFFSET 2.000000 0.000000 0.000000
											}
										}
									}
								}
								JOINT LeftHandRing1
								{
									OFFSET 10.325164 0.321132 -1.875542
									CHANNELS 3 Yrotation Zrotation Xrotation
									JOINT LeftHandRing2
									{
										OFFSET 5.445232 0.000000 0.000000
										CHANNELS 3 Yrotation Zrotation Xrotation
										JOINT LeftHandRing3
										{
											OFFSET 3.713173 0.000000 0.000000
											CHANNELS 3 Yrotation Zrotation Xrotation
											End Site
											{
												OFFSET 2.000000 0.000000 0.000000
											}
										}
									}
								}
							}
						}
					}
				}
				JOINT Neck
				{
					OFFSET 0.000000 13.877442 -4.354187
					CHANNELS 3 Yrotation Zrotation Xrotation
					JOINT Neck1
					{
						OFFSET 0.000000 4.340027 0.926895
						CHANNELS 3 Yrotation Zrotation Xrotation
						JOINT Head
						{
							OFFSET 0.000000 4.026611 0.858520
							CHANNELS 3 Yrotation Zrotation Xrotation
							End Site
							{
								OFFSET 0.000000 20.000000 0.000000
							}
						}
					}
				}
				JOINT RightShoulder
				{
					OFFSET -6.140198 10.187012 -3.793244
					CHANNELS 3 Yrotation Zrotation Xrotation
					JOINT RightArm
					{
						OFFSET -12.323120 -1.112976 -1.793457
						CHANNELS 3 Yrotation Zrotation Xrotation
						JOINT RightForeArm
						{
							OFFSET -27.687012 0.000000 0.000000
							CHANNELS 3 Yrotation Zrotation Xrotation
							JOINT RightHand
							{
								OFFSET -27.873779 0.000000 0.000000
								CHANNELS 3 Yrotation Zrotation Xrotation
								JOINT RightHandIndex1
								{
									OFFSET -10.466505 0.489581 2.711963
									CHANNELS 3 Yrotation Zrotation Xrotation
									JOINT RightHandIndex2
									{
										OFFSET -5.376767 0.000000 0.000000
										CHANNELS 3 Yrotation Zrotation Xrotation
										JOINT RightHandIndex3
										{
											OFFSET -3.385469 0.000000 0.000000
											CHANNELS 3 Yrotation Zrotation Xrotation
											End Site
											{
												OFFSET -2.000000 0.000000 0.000000
											}
										}
									}
								}
								JOINT RightHandThumb1
								{
									OFFSET -2.517766 -0.936667 2.513669
									CHANNELS 3 Yrotation Zrotation Xrotation
									JOINT RightHandThumb2
									{
										OFFSET -3.263787 -1.086965 2.966880
										CHANNELS 3 Yrotation Zrotation Xrotation
										JOINT RightHandThumb3
										{
											OFFSET -4.416528 -1.370263 2.135023
											CHANNELS 3 Yrotation Zrotation Xrotation
											End Site
											{
												OFFSET -2.000000 0.000000 0.000000
											}
										}
									}
								}
								JOINT RightHandMiddle1
								{
									OFFSET -10.759602 0.489580 0.427799
									CHANNELS 3 Yrotation Zrotation Xrotation
									JOINT RightHandMiddle2
									{
										OFFSET -5.616768 0.000000 0.000000
										CHANNELS 3 Yrotation Zrotation Xrotation
										JOINT RightHandMiddle3
										{
											OFFSET -3.736354 0.000000 0.000000
											CHANNELS 3 Yrotation Zrotation Xrotation
											End Site
											{
												OFFSET -2.000000 0.000000 0.000000
											}
										}
									}
								}
								JOINT RightHandPinky1
								{
									OFFSET -9.971459 -0.119144 -3.954005
									CHANNELS 3 Yrotation Zrotation Xrotation
									JOINT RightHandPinky2
									{
										OFFSET -3.652758 0.000000 0.000000
										CHANNELS 3 Yrotation Zrotation Xrotation
										JOINT RightHandPinky3
										{
											OFFSET -2.782034 0.000000 0.000000
											CHANNELS 3 Yrotation Zrotation Xrotation
											End Site
											{
												OFFSET -2.000000 0.000000 0.000000
											}
										}
									}
								}
								JOINT RightHandRing1
								{
									OFFSET -10.470213 0.387872 -1.936280
									CHANNELS 3 Yrotation Zrotation Xrotation
									JOINT RightHandRing2
									{
										OFFSET -5.401276 0.000000 0.000000
										CHANNELS 3 Yrotation Zrotation Xrotation
										JOINT RightHandRing3
										{
											OFFSET -3.391596 0.000000 0.000000
											CHANNELS 3 Yrotation Zrotation Xrotation
											End Site
											{
												OFFSET -2.000000 0.000000 0.000000
											}
										}
									}
								}
							}
						}
					}
				}
			}
		}
	}
}
MOTION
Frames: 9
Frame Time: 0.010000000
0.0 96.379402 0.0 1.60 -1.50 -17.78 -17.40 -11.50 15.40 14.46 0.02 -7.07 -1.10 2.25 8.35 0.00 0.00 0.00 -4.38 -10.81 23.32 -7.74 9.32 -12.20 9.59 4.07 11.27 0.00 0.00 0.00 0.00 0.00 0.00 0.00 0.00 0.00 -18.33 -7.56 22.80 0.00 0.00 0.00 0.00 0.00 0.00 0.00 0.00 0.00 0.00 0.00 0.00 0.00 0.00 0.00 0.00 0.00 0.00 0.00 0.00 0.00 0.00 0.00 0.00 0.00 0.00 0.00 0.00 0.00 0.00 0.00 0.00 0.00 0.00 0.00 0.00 0.00 0.00 0.00 0.00 0.00 0.00 0.00 0.00 0.00 0.00 0.00 0.00 0.00 0.00 0.00 0.00 0.00 0.00 0.00 0.00 0.00 0.00 0.00 0.00 0.00 0.00 0.00 0.00 0.00 0.00 0.00 0.00 0.00 0.00 0.00 0.00 0.00 0.00 0.00 0.00 0.00 0.00 0.00 0.00 0.00 0.00 0.00 0.00 0.00 0.00 0.00 0.00 0.00 0.00 0.00 0.00 0.00 0.00 0.00 0.00 0.00 0.00 0.00 0.00 0.00 0.00 0.00 0.00 0.00 0.00 0.00 0.00 0.00 0.00 0.00 0.00 0.00 0.00 0.00 0.00 0.00 0.00 0.00 0.00 0.00 0.00 0.00
0.0 96.379402 0.0 1.81 -1.40 -17.68 -17.38 -11.77 15.82 14.24 0.06 -7.44 -1.00 2.30 8.17 0.00 0.00 0.00 -3.62 -10.56 22.38 -8.92 9.16 -11.18 11.67 4.37 10.19 0.00 0.00 0.00 0.00 0.00 0.00 0.00 0.00 0.00 -18.52 -7.68 22.66 0.00 0.00 0.00 0.00 0.00 0.00 0.00 0.00 0.00 0.00 0.00 0.00 0.00 0.00 0.00 0.00 0.00 0.00 0.00 0.00 0.00 0.00 0.00 0.00 0.00 0.00 0.00 0.00 0.00 0.00 0.00 0.00 0.00 0.00 0.00 0.00 0.00 0.00 0.00 0.00 0.00 0.00 0.00 0.00 0.00 0.00 0.00 0.00 0.00 0.00 0.00 0.00 0.00 0.00 0.00 0.00 0.00 0.00 0.00 0.00 0.00 0.00 0.00 0.00 0.00 0.00 0.00 0.00 0.00 0.00 0.00 0.00 0.00 0.00 0.00 0.00 0.00 0.00 0.00 0.00 0.00 0.00 0.00 0.00 0.00 0.00 0.00 0.00 0.00 0.00 0.00 0.00 0.00 0.00 0.00 0.00 0.00 0.00 0.00 0.00 0.00 0.00 0.00 0.00 0.00 0.00 0.00 0.00 0.00 0.00 0.00 0.00 0.00 0.00 0.00 0.00 0.00 0.00 0.00 0.00 0.00 0.00 0.00
0.0 96.379402 0.0 2.04 -1.32 -17.56 -17.37 -12.03 16.24 14.02 0.10 -7.84 -0.94 2.35 8.00 0.00 0.00 0.00 -2.81 -10.23 21.38 -9.41 8.94 -10.76 12.46 4.71 9.81 0.00 0.00 0.00 0.00 0.00 0.00 0.00 0.00 0.00 -18.74 -7.79 22.51 0.00 0.00 0.00 0.00 0.00 0.00 0.00 0.00 0.00 0.00 0.00 0.00 0.00 0.00 0.00 0.00 0.00 0.00 0.00 0.00 0.00 0.00 0.00 0.00 0.00 0.00 0.00 0.00 0.00 0.00 0.00 0.00 0.00 0.00 0.00 0.00 0.00 0.00 0.00 0.00 0.00 0.00 0.00 0.00 0.00 0.00 0.00 0.00 0.00 0.00 0.00 0.00 0.00 0.00 0.00 0.00 0.00 0.00 0.00 0.00 0.00 0.00 0.00 0.00 0.00 0.00 0.00 0.00 0.00 0.00 0.00 0.00 0.00 0.00 0.00 0.00 0.00 0.00 0.00 0.00 0.00 0.00 0.00 0.00 0.00 0.00 0.00 0.00 0.00 0.00 0.00 0.00 0.00 0.00 0.00 0.00 0.00 0.00 0.00 0.00 0.00 0.00 0.00 0.00 0.00 0.00 0.00 0.00 0.00 0.00 0.00 0.00 0.00 0.00 0.00 0.00 0.00 0.00 0.00 0.00 0.00 0.00 0.00
0.0 96.379402 0.0 2.29 -1.26 -17.44 -17.62 -12.13 16.09 14.02 0.05 -7.70 -0.94 2.40 7.86 0.00 0.00 0.00 -2.57 -10.11 20.80 -8.78 8.91 -11.29 12.35 4.98 9.99 0.00 0.00 0.00 0.00 0.00 0.00 0.00 0.00 0.00 -18.98 -7.88 22.36 0.00 0.00 0.00 0.00 0.00 0.00 0.00 0.00 0.00 0.00 0.00 0.00 0.00 0.00 0.00 0.00 0.00 0.00 0.00 0.00 0.00 0.00 0.00 0.00 0.00 0.00 0.00 0.00 0.00 0.00 0.00 0.00 0.00 0.00 0.00 0.00 0.00 0.00 0.00 0.00 0.00 0.00 0.00 0.00 0.00 0.00 0.00 0.00 0.00 0.00 0.00 0.00 0.00 0.00 0.00 0.00 0.00 0.00 0.00 0.00 0.00 0.00 0.00 0.00 0.00 0.00 0.00 0.00 0.00 0.00 0.00 0.00 0.00 0.00 0.00 0.00 0.00 0.00 0.00 0.00 0.00 0.00 0.00 0.00 0.00 0.00 0.00 0.00 0.00 0.00 0.00 0.00 0.00 0.00 0.00 0.00 0.00 0.00 0.00 0.00 0.00 0.00 0.00 0.00 0.00 0.00 0.00 0.00 0.00 0.00 0.00 0.00 0.00 0.00 0.00 0.00 0.00 0.00 0.00 0.00 0.00 0.00 0.00
0.0 96.379402 0.0 2.53 -1.21 -17.33 -16.73 -12.67 17.87 13.10 0.27 -9.19 -0.79 2.73 7.46 0.00 0.00 0.00 -1.83 -9.70 19.75 -9.18 8.79 -11.07 12.26 5.21 10.14 0.00 0.00 0.00 0.00 0.00 0.00 0.00 0.00 0.00 -19.20 -7.96 22.21 0.00 0.00 0.00 0.00 0.00 0.00 0.00 0.00 0.00 0.00 0.00 0.00 0.00 0.00 0.00 0.00 0.00 0.00 0.00 0.00 0.00 0.00 0.00 0.00 0.00 0.00 0.00 0.00 0.00 0.00 0.00 0.00 0.00 0.00 0.00 0.00 0.00 0.00 0.00 0.00 0.00 0.00 0.00 0.00 0.00 0.00 0.00 0.00 0.00 0.00 0.00 0.00 0.00 0.00 0.00 0.00 0.00 0.00 0.00 0.00 0.00 0.00 0.00 0.00 0.00 0.00 0.00 0.00 0.00 0.00 0.00 0.00 0.00 0.00 0.00 0.00 0.00 0.00 0.00 0.00 0.00 0.00 0.00 0.00 0.00 0.00 0.00 0.00 0.00 0.00 0.00 0.00 0.00 0.00 0.00 0.00 0.00 0.00 0.00 0.00 0.00 0.00 0.00 0.00 0.00 0.00 0.00 0.00 0.00 0.00 0.00 0.00 0.00 0.00 0.00 0.00 0.00 0.00 0.00 0.00 0.00 0.00 0.00
0.0 96.379402 0.0 2.72 -1.16 -17.20 -16.94 -12.74 17.72 13.10 0.27 -9.19 -0.79 2.73 7.46 0.00 0.00 0.00 -1.14 -9.23 18.68 -9.91 8.70 -10.70 12.18 5.39 10.26 0.00 0.00 0.00 0.00 0.00 0.00 0.00 0.00 0.00 -19.40 -8.02 22.06 0.00 0.00 0.00 0.00 0.00 0.00 0.00 0.00 0.00 0.00 0.00 0.00 0.00 0.00 0.00 0.00 0.00 0.00 0.00 0.00 0.00 0.00 0.00 0.00 0.00 0.00 0.00 0.00 0.00 0.00 0.00 0.00 0.00 0.00 0.00 0.00 0.00 0.00 0.00 0.00 0.00 0.00 0.00 0.00 0.00 0.00 0.00 0.00 0.00 0.00 0.00 0.00 0.00 0.00 0.00 0.00 0.00 0.00 0.00 0.00 0.00 0.00 0.00 0.00 0.00 0.00 0.00 0.00 0.00 0.00 0.00 0.00 0.00 0.00 0.00 0.00 0.00 0.00 0.00 0.00 0.00 0.00 0.00 0.00 0.00 0.00 0.00 0.00 0.00 0.00 0.00 0.00 0.00 0.00 0.00 0.00 0.00 0.00 0.00 0.00 0.00 0.00 0.00 0.00 0.00 0.00 0.00 0.00 0.00 0.00 0.00 0.00 0.00 0.00 0.00 0.00 0.00 0.00 0.00 0.00 0.00 0.00 0.00
0.0 96.379402 0.0 2.90 -1.11 -17.07 -17.12 -12.79 17.56 13.08 0.19 -9.00 -0.72 2.95 7.27 0.00 0.00 0.00 -0.61 -8.72 17.61 -10.80 8.56 -10.26 12.14 5.31 10.60 0.00 0.00 0.00 0.00 0.00 0.00 0.00 0.00 0.00 -19.58 -8.06 21.90 0.00 0.00 0.00 0.00 0.00 0.00 0.00 0.00 0.00 0.00 0.00 0.00 0.00 0.00 0.00 0.00 0.00 0.00 0.00 0.00 0.00 0.00 0.00 0.00 0.00 0.00 0.00 0.00 0.00 0.00 0.00 0.00 0.00 0.00 0.00 0.00 0.00 0.00 0.00 0.00 0.00 0.00 0.00 0.00 0.00 0.00 0.00 0.00 0.00 0.00 0.00 0.00 0.00 0.00 0.00 0.00 0.00 0.00 0.00 0.00 0.00 0.00 0.00 0.00 0.00 0.00 0.00 0.00 0.00 0.00 0.00 0.00 0.00 0.00 0.00 0.00 0.00 0.00 0.00 0.00 0.00 0.00 0.00 0.00 0.00 0.00 0.00 0.00 0.00 0.00 0.00 0.00 0.00 0.00 0.00 0.00 0.00 0.00 0.00 0.00 0.00 0.00 0.00 0.00 0.00 0.00 0.00 0.00 0.00 0.00 0.00 0.00 0.00 0.00 0.00 0.00 0.00 0.00 0.00 0.00 0.00 0.00 0.00
0.0 96.379402 0.0 3.09 -1.07 -16.92 -16.97 -12.93 17.90 12.76 0.24 -9.36 -0.63 3.15 7.22 0.00 0.00 0.00 -0.35 -8.23 16.54 -11.74 8.41 -9.79 12.21 5.41 10.64 0.00 0.00 0.00 0.00 0.00 0.00 0.00 0.00 0.00 -19.77 -8.10 21.74 0.00 0.00 0.00 0.00 0.00 0.00 0.00 0.00 0.00 0.00 0.00 0.00 0.00 0.00 0.00 0.00 0.00 0.00 0.00 0.00 0.00 0.00 0.00 0.00 0.00 0.00 0.00 0.00 0.00 0.00 0.00 0.00 0.00 0.00 0.00 0.00 0.00 0.00 0.00 0.00 0.00 0.00 0.00 0.00 0.00 0.00 0.00 0.00 0.00 0.00 0.00 0.00 0.00 0.00 0.00 0.00 0.00 0.00 0.00 0.00 0.00 0.00 0.00 0.00 0.00 0.00 0.00 0.00 0.00 0.00 0.00 0.00 0.00 0.00 0.00 0.00 0.00 0.00 0.00 0.00 0.00 0.00 0.00 0.00 0.00 0.00 0.00 0.00 0.00 0.00 0.00 0.00 0.00 0.00 0.00 0.00 0.00 0.00 0.00 0.00 0.00 0.00 0.00 0.00 0.00 0.00 0.00 0.00 0.00 0.00 0.00 0.00 0.00 0.00 0.00 0.00 0.00 0.00 0.00 0.00 0.00 0.00 0.00
0.0 96.379402 0.0 3.19 -1.06 -16.84 -16.76 -13.05 18.29 12.40 0.26 -9.57 -0.49 3.42 7.07 0.00 0.00 0.00 -0.31 -7.76 15.58 -12.61 8.27 -9.31 12.26 5.46 10.67 0.00 0.00 0.00 0.00 0.00 0.00 0.00 0.00 0.00 -19.88 -8.12 21.64 0.00 0.00 0.00 0.00 0.00 0.00 0.00 0.00 0.00 0.00 0.00 0.00 0.00 0.00 0.00 0.00 0.00 0.00 0.00 0.00 0.00 0.00 0.00 0.00 0.00 0.00 0.00 0.00 0.00 0.00 0.00 0.00 0.00 0.00 0.00 0.00 0.00 0.00 0.00 0.00 0.00 0.00 0.00 0.00 0.00 0.00 0.00 0.00 0.00 0.00 0.00 0.00 0.00 0.00 0.00 0.00 0.00 0.00 0.00 0.00 0.00 0.00 0.00 0.00 0.00 0.00 0.00 0.00 0.00 0.00 0.00 0.00 0.00 0.00 0.00 0.00 0.00 0.00 0.00 0.00 0.00 0.00 0.00 0.00 0.00 0.00 0.00 0.00 0.00 0.00 0.00 0.00 0.00 0.00 0.00 0.00 0.00 0.00 0.00 0.00 0.00 0.00 0.00 0.00 0.00 0.00 0.00 0.00 0.00 0.00 0.00 0.00 0.00 0.00 0.00 0.00 0.00 0.00 0.00 0.00 0.00 0.00 0.00
